#!OML:ASF F:\VICON\USERDATA\INSTALL\rory3\rory3.ASF
:FULLY-SPECIFIED
:DEGREES
1324
root -1.03447 17.6094 1.95105 5.84871 3.32854 -0.97517
lowerback 10.0483 0.950224 1.15944
upperback 2.62906 1.37392 -0.132815
thorax -2.8668 0.677924 -0.958737
lowerneck -24.6769 -14.6507 -13.2191
upperneck 4.6209 -18.0217 18.1693
head 8.3189 -7.43653 5.29454
rclavicle -1.3418e-015 2.68359e-015
rhumerus 43.8781 -20.6858 -30.0558
rradius 50.3694
rwrist 46.7927
rhand -67.4482 -20.2309
rfingers 7.12502
rthumb -39.2094 -45.6906
lclavicle -1.3418e-015 2.68359e-015
lhumerus -38.6602 11.6122 69.7023
lradius 40.9247
lwrist -4.41773
lhand -20.8011 24.6214
lfingers 7.12502
lthumb 5.56635 54.5283
rfemur -21.3676 -7.01512 16.6045
rtibia 36.2761
rfoot -16.7603 -2.40407
rtoes 2.72
lfemur -18.8348 -4.46075 -8.12661
ltibia 27.8578
lfoot -11.7212 0.798426
ltoes -21.9683
1325
root -1.05131 17.6133 1.95154 5.84912 3.18952 -0.939717
lowerback 10.0625 0.815135 1.2759
upperback 2.69658 1.21201 0.0310836
thorax -2.80963 0.597827 -0.834267
lowerneck -24.6348 -14.7648 -13.1536
upperneck 4.42308 -18.1883 18.2563
head 8.27684 -7.51687 5.28071
rclavicle 3.50979e-015 1.55797e-014
rhumerus 44.1109 -21.6053 -30.7153
rradius 49.7214
rwrist 46.5395
rhand -67.4137 -19.8011
rfingers 7.12502
rthumb -39.1769 -45.2702
lclavicle 3.50979e-015 1.55797e-014
lhumerus -38.4217 11.7147 69.7283
lradius 40.6891
lwrist -4.47721
lhand -20.743 24.1496
lfingers 7.12502
lthumb 5.62245 54.055
rfemur -21.414 -6.93625 16.6385
rtibia 36.298
rfoot -16.7404 -2.42695
rtoes 2.72194
lfemur -18.7038 -4.30436 -8.1487
ltibia 27.7071
lfoot -11.5979 0.871149
ltoes -22.6235
1326
root -1.06755 17.6171 1.94961 5.87277 3.08531 -0.908396
lowerback 10.1751 0.695732 1.34725
upperback 2.65941 1.07095 0.257596
thorax -2.91663 0.526463 -0.624809
lowerneck -24.3992 -14.8675 -13.2221
upperneck 4.17345 -18.3072 18.3131
head 8.18843 -7.59345 5.29407
rclavicle 2.15681e-014 -1.59028e-014
rhumerus 44.2755 -22.4126 -31.1684
rradius 49.091
rwrist 46.1556
rhand -67.3174 -19.7447
rfingers 7.12502
rthumb -39.0861 -45.24
lclavicle 2.15681e-014 -1.59028e-014
lhumerus -38.3346 11.8794 69.8497
lradius 40.5016
lwrist -4.51695
lhand -20.9201 23.7588
lfingers 7.12502
lthumb 5.45153 53.6687
rfemur -21.4897 -6.83476 16.6727
rtibia 36.3074
rfoot -16.6949 -2.48029
rtoes 2.73358
lfemur -18.6658 -4.26919 -8.1433
ltibia 27.5908
lfoot -11.4484 0.970849
ltoes -22.7032
1327
root -1.08159 17.619 1.94726 5.95582 2.95908 -0.897858
lowerback 10.2919 0.620611 1.45849
upperback 2.55288 0.993669 0.466741
thorax -3.09502 0.485775 -0.463668
lowerneck -24.2714 -15.0295 -13.2406
upperneck 4.16313 -18.5262 18.2428
head 8.18964 -7.71023 5.23126
rclavicle 1.54058e-015 6.16232e-015
rhumerus 44.2804 -23.2472 -31.6212
rradius 48.5311
rwrist 45.7616
rhand -67.1059 -19.8734
rfingers 7.12502
rthumb -38.8867 -45.4258
lclavicle 1.54058e-015 6.16232e-015
lhumerus -38.3204 11.7314 70.0596
lradius 40.4674
lwrist -4.39427
lhand -20.98 24.098
lfingers 7.12502
lthumb 5.39369 54.0094
rfemur -21.6373 -6.76192 16.7343
rtibia 36.3112
rfoot -16.654 -2.51116
rtoes 2.32773
lfemur -18.6803 -4.37651 -8.09585
ltibia 27.4742
lfoot -11.3174 1.25758
ltoes -22.2508
1328
root -1.09352 17.6199 1.94685 6.03528 2.84959 -0.761506
lowerback 10.348 0.541613 1.47101
upperback 2.46773 0.897949 0.612008
thorax -3.2183 0.437107 -0.309288
lowerneck -24.1194 -15.1336 -13.1124
upperneck 4.04543 -18.6775 18.0682
head 8.11362 -7.80723 5.13026
rclavicle 6.75868e-015 3.37934e-015
rhumerus 44.3818 -24.1547 -32.253
rradius 47.9173
rwrist 45.3377
rhand -66.8242 -20.1126
rfingers 7.12502
rthumb -38.621 -45.7401
lclavicle 6.75868e-015 3.37934e-015
lhumerus -38.3248 11.4692 70.2325
lradius 40.5498
lwrist -4.20429
lhand -20.9224 24.6047
lfingers 7.12502
lthumb 5.44925 54.5146
rfemur -21.7549 -6.76334 16.6346
rtibia 36.3204
rfoot -16.5871 -2.42006
rtoes 2.49179
lfemur -18.6473 -4.42833 -8.20844
ltibia 27.353
lfoot -11.2647 1.45066
ltoes -22.051
1329
root -1.10475 17.6251 1.9491 6.07491 2.73919 -0.615956
lowerback 10.3396 0.45103 1.49184
upperback 2.47581 0.784264 0.728897
thorax -3.20845 0.380877 -0.185068
lowerneck -24.1689 -15.1997 -13.0859
upperneck 4.03462 -18.7757 18.1085
head 8.13496 -7.84731 5.11666
rclavicle -3.47873e-015 -3.37934e-015
rhumerus 44.6622 -25.1596 -33.0796
rradius 47.2648
rwrist 45.0248
rhand -66.4666 -20.1973
rfingers 7.12502
rthumb -38.2836 -45.9188
lclavicle -3.47873e-015 -3.37934e-015
lhumerus -38.2121 11.3829 70.3272
lradius 40.596
lwrist -4.14457
lhand -20.8289 24.7301
lfingers 7.12502
lthumb 5.53958 54.6377
rfemur -21.8083 -6.71379 16.507
rtibia 36.3393
rfoot -16.586 -2.32688
rtoes 2.84477
lfemur -18.5671 -4.41811 -8.35137
ltibia 27.2251
lfoot -11.2024 1.58018
ltoes -21.8099
1330
root -1.11494 17.6279 1.95048 6.10158 2.62201 -0.447397
lowerback 10.4256 0.368015 1.43405
upperback 2.4118 0.676647 0.877521
thorax -3.32641 0.327188 0.0144424
lowerneck -24.0055 -15.2499 -13.1408
upperneck 4.01519 -18.843 18.0954
head 8.11658 -7.89166 5.11216
rclavicle 3.77691e-015 6.36111e-015
rhumerus 44.8095 -25.9816 -33.6921
rradius 46.6419
rwrist 44.4382
rhand -66.3934 -20.2457
rfingers 7.12502
rthumb -38.2145 -45.9862
lclavicle 3.77691e-015 6.36111e-015
lhumerus -38.1661 11.0681 70.5545
lradius 40.5904
lwrist -3.89092
lhand -20.9116 24.6268
lfingers 7.12502
lthumb 5.4597 54.5365
rfemur -21.8679 -6.71906 16.3702
rtibia 36.3674
rfoot -16.539 -2.30132
rtoes 2.5232
lfemur -18.4721 -4.40657 -8.52744
ltibia 27.0877
lfoot -11.1225 1.73932
ltoes -21.5122
1331
root -1.12357 17.6279 1.95236 6.1273 2.60968 -0.252368
lowerback 10.5096 0.288333 1.36501
upperback 2.34535 0.572665 1.03072
thorax -3.44523 0.275708 0.225154
lowerneck -23.864 -15.3115 -13.0954
upperneck 4.04296 -18.926 17.8817
head 8.08239 -7.95469 5.02397
rclavicle 1.98785e-015 -2.78299e-015
rhumerus 44.8891 -26.8873 -34.243
rradius 45.9953
rwrist 43.9221
rhand -66.4858 -19.9389
rfingers 7.12502
rthumb -38.3017 -45.6554
lclavicle 1.98785e-015 -2.78299e-015
lhumerus -38.1135 10.4671 70.8983
lradius 40.6541
lwrist -3.59913
lhand -20.9123 24.6374
lfingers 7.12502
lthumb 5.45899 54.5471
rfemur -21.8951 -6.73479 16.1926
rtibia 36.4012
rfoot -16.5641 -2.31841
rtoes 2.50491
lfemur -18.4163 -4.47244 -8.71235
ltibia 26.9208
lfoot -10.9984 1.82089
ltoes -20.6508
1332
root -1.13233 17.6307 1.955 6.16718 2.69937 -0.160473
lowerback 10.5325 0.182595 1.44989
upperback 2.30604 0.449215 1.18106
thorax -3.50003 0.213915 0.349699
lowerneck -23.8316 -15.3934 -13.1847
upperneck 4.0829 -19.0277 17.915
head 8.11808 -8.00138 5.02631
rclavicle 8.64713e-015 3.97569e-015
rhumerus 45.0044 -27.9071 -34.8932
rradius 45.4071
rwrist 43.4757
rhand -66.2586 -18.9793
rfingers 7.12502
rthumb -38.0873 -44.7548
lclavicle 8.64713e-015 3.97569e-015
lhumerus -38.1009 10.1647 71.0925
lradius 40.8871
lwrist -3.66663
lhand -20.3265 25.0797
lfingers 7.12502
lthumb 6.02457 54.9741
rfemur -21.9107 -6.76489 16.1304
rtibia 36.4279
rfoot -16.6345 -2.35585
rtoes 2.8234
lfemur -18.4029 -4.5673 -8.77882
ltibia 26.7643
lfoot -10.8732 1.88676
ltoes -20.2957
1333
root -1.1398 17.6334 1.95535 6.21713 2.73975 0.0205604
lowerback 10.6155 0.0796802 1.41779
upperback 2.22778 0.317828 1.30043
thorax -3.62878 0.14877 0.509223
lowerneck -23.6706 -15.4115 -13.13
upperneck 3.94333 -19.0597 17.876
head 8.04127 -8.03392 5.00733
rclavicle 3.97569e-015 1.31198e-014
rhumerus 45.2847 -28.8672 -35.6812
rradius 44.7181
rwrist 42.924
rhand -65.8403 -17.4278
rfingers 7.12502
rthumb -37.6921 -43.3101
lclavicle 3.97569e-015 1.31198e-014
lhumerus -38.1589 10.1933 71.1838
lradius 41.0986
lwrist -3.83916
lhand -19.7108 25.4056
lfingers 7.12502
lthumb 6.61898 55.2822
rfemur -21.9814 -6.84131 15.9787
rtibia 36.4584
rfoot -16.6161 -2.4006
rtoes 2.4251
lfemur -18.387 -4.66261 -8.95839
ltibia 26.6123
lfoot -10.7504 2.01239
ltoes -20.2022
1334
root -1.1448 17.6367 1.9565 6.22859 2.71854 0.125348
lowerback 10.7411 0.0150155 1.45357
upperback 2.14757 0.246748 1.43935
thorax -3.78233 0.112938 0.643315
lowerneck -23.5494 -15.4235 -13.0543
upperneck 3.87262 -19.0829 17.7649
head 7.98025 -8.06257 4.96185
rclavicle 1.39149e-015 -1.27222e-014
rhumerus 45.7193 -29.7936 -36.682
rradius 43.9313
rwrist 42.2243
rhand -65.6701 -15.8803
rfingers 7.12502
rthumb -37.5313 -41.8055
lclavicle 1.39149e-015 -1.27222e-014
lhumerus -38.1858 9.97691 71.4531
lradius 41.3374
lwrist -3.42329
lhand -19.7946 25.2242
lfingers 7.12502
lthumb 6.5381 55.1033
rfemur -22.0154 -6.92537 15.9043
rtibia 36.4631
rfoot -16.5644 -2.44891
rtoes 1.63555
lfemur -18.3332 -4.63862 -9.08172
ltibia 26.5056
lfoot -10.63 2.06741
ltoes -19.907
